<?xml version="1.0" encoding="utf-8" standalone="no"?>
<!DOCTYPE svg PUBLIC "-//W3C//DTD SVG 1.1//EN"
  "http://www.w3.org/Graphics/SVG/1.1/DTD/svg11.dtd">
<!-- Created with matplotlib (https://matplotlib.org/) -->
<svg height="345.6pt" version="1.1" viewBox="0 0 460.8 345.6" width="460.8pt" xmlns="http://www.w3.org/2000/svg" xmlns:xlink="http://www.w3.org/1999/xlink">
 <defs>
  <style type="text/css">
*{stroke-linecap:butt;stroke-linejoin:round;}
  </style>
 </defs>
 <g id="figure_1">
  <g id="patch_1">
   <path d="M 0 345.6 
L 460.8 345.6 
L 460.8 0 
L 0 0 
z
" style="fill:#ffffff;"/>
  </g>
  <g id="axes_1">
   <g id="patch_2">
    <path d="M 369.216 174.528 
C 369.216 157.055246 365.774248 139.752393 359.087715 123.609673 
C 352.401182 107.466954 342.599903 92.798303 330.2448 80.4432 
C 317.889697 68.088097 303.221046 58.286818 287.078327 51.600285 
C 270.935607 44.913752 253.632754 41.472 236.16 41.472 
C 218.687246 41.472 201.384393 44.913752 185.241673 51.600285 
C 169.098954 58.286818 154.430303 68.088097 142.0752 80.4432 
C 129.720097 92.798303 119.918818 107.466954 113.232285 123.609673 
C 106.545752 139.752393 103.104 157.055246 103.104 174.528 
C 103.104 192.000754 106.545752 209.303607 113.232285 225.446327 
C 119.918818 241.589046 129.720097 256.257697 142.0752 268.6128 
C 154.430303 280.967903 169.098954 290.769182 185.241673 297.455715 
C 201.384393 304.142248 218.687246 307.584 236.16 307.584 
C 253.632754 307.584 270.935607 304.142248 287.078327 297.455715 
C 303.221046 290.769182 317.889697 280.967903 330.2448 268.6128 
C 342.599903 256.257697 352.401182 241.589046 359.087715 225.446327 
C 365.774248 209.303607 369.216 192.000754 369.216 174.528 
M 236.16 174.528 
C 236.16 174.528 236.16 174.528 236.16 174.528 
C 236.16 174.528 236.16 174.528 236.16 174.528 
C 236.16 174.528 236.16 174.528 236.16 174.528 
C 236.16 174.528 236.16 174.528 236.16 174.528 
C 236.16 174.528 236.16 174.528 236.16 174.528 
C 236.16 174.528 236.16 174.528 236.16 174.528 
C 236.16 174.528 236.16 174.528 236.16 174.528 
C 236.16 174.528 236.16 174.528 236.16 174.528 
C 236.16 174.528 236.16 174.528 236.16 174.528 
C 236.16 174.528 236.16 174.528 236.16 174.528 
C 236.16 174.528 236.16 174.528 236.16 174.528 
C 236.16 174.528 236.16 174.528 236.16 174.528 
C 236.16 174.528 236.16 174.528 236.16 174.528 
C 236.16 174.528 236.16 174.528 236.16 174.528 
C 236.16 174.528 236.16 174.528 236.16 174.528 
C 236.16 174.528 236.16 174.528 236.16 174.528 
M 369.216 174.528 
z
" style="fill:#ffffff;"/>
   </g>
   <g id="matplotlib.axis_1">
    <g id="xtick_1">
     <g id="line2d_1">
      <path clip-path="url(#p8924180fa0)" d="M 236.16 174.528 
L 369.216 174.528 
" style="fill:none;stroke:#b0b0b0;stroke-linecap:square;stroke-width:0.8;"/>
     </g>
     <g id="text_1">
      <!-- 0° -->
      <defs>
       <path d="M 31.78125 66.40625 
Q 24.171875 66.40625 20.328125 58.90625 
Q 16.5 51.421875 16.5 36.375 
Q 16.5 21.390625 20.328125 13.890625 
Q 24.171875 6.390625 31.78125 6.390625 
Q 39.453125 6.390625 43.28125 13.890625 
Q 47.125 21.390625 47.125 36.375 
Q 47.125 51.421875 43.28125 58.90625 
Q 39.453125 66.40625 31.78125 66.40625 
z
M 31.78125 74.21875 
Q 44.046875 74.21875 50.515625 64.515625 
Q 56.984375 54.828125 56.984375 36.375 
Q 56.984375 17.96875 50.515625 8.265625 
Q 44.046875 -1.421875 31.78125 -1.421875 
Q 19.53125 -1.421875 13.0625 8.265625 
Q 6.59375 17.96875 6.59375 36.375 
Q 6.59375 54.828125 13.0625 64.515625 
Q 19.53125 74.21875 31.78125 74.21875 
z
" id="DejaVuSans-48"/>
       <path d="M 25 67.921875 
Q 21.09375 67.921875 18.40625 65.203125 
Q 15.71875 62.5 15.71875 58.59375 
Q 15.71875 54.734375 18.40625 52.078125 
Q 21.09375 49.421875 25 49.421875 
Q 28.90625 49.421875 31.59375 52.078125 
Q 34.28125 54.734375 34.28125 58.59375 
Q 34.28125 62.453125 31.5625 65.1875 
Q 28.859375 67.921875 25 67.921875 
z
M 25 74.21875 
Q 28.125 74.21875 31 73.015625 
Q 33.890625 71.828125 35.984375 69.578125 
Q 38.234375 67.390625 39.359375 64.59375 
Q 40.484375 61.8125 40.484375 58.59375 
Q 40.484375 52.15625 35.96875 47.6875 
Q 31.453125 43.21875 24.90625 43.21875 
Q 18.3125 43.21875 13.90625 47.609375 
Q 9.515625 52 9.515625 58.59375 
Q 9.515625 65.140625 14 69.671875 
Q 18.5 74.21875 25 74.21875 
z
" id="DejaVuSans-176"/>
      </defs>
      <g transform="translate(377.53475 177.287375)scale(0.1 -0.1)">
       <use xlink:href="#DejaVuSans-48"/>
       <use x="63.623047" xlink:href="#DejaVuSans-176"/>
      </g>
     </g>
    </g>
    <g id="xtick_2">
     <g id="line2d_2">
      <path clip-path="url(#p8924180fa0)" d="M 236.16 174.528 
L 330.2448 80.4432 
" style="fill:none;stroke:#b0b0b0;stroke-linecap:square;stroke-width:0.8;"/>
     </g>
     <g id="text_2">
      <!-- 45° -->
      <defs>
       <path d="M 37.796875 64.3125 
L 12.890625 25.390625 
L 37.796875 25.390625 
z
M 35.203125 72.90625 
L 47.609375 72.90625 
L 47.609375 25.390625 
L 58.015625 25.390625 
L 58.015625 17.1875 
L 47.609375 17.1875 
L 47.609375 0 
L 37.796875 0 
L 37.796875 17.1875 
L 4.890625 17.1875 
L 4.890625 26.703125 
z
" id="DejaVuSans-52"/>
       <path d="M 10.796875 72.90625 
L 49.515625 72.90625 
L 49.515625 64.59375 
L 19.828125 64.59375 
L 19.828125 46.734375 
Q 21.96875 47.46875 24.109375 47.828125 
Q 26.265625 48.1875 28.421875 48.1875 
Q 40.625 48.1875 47.75 41.5 
Q 54.890625 34.8125 54.890625 23.390625 
Q 54.890625 11.625 47.5625 5.09375 
Q 40.234375 -1.421875 26.90625 -1.421875 
Q 22.3125 -1.421875 17.546875 -0.640625 
Q 12.796875 0.140625 7.71875 1.703125 
L 7.71875 11.625 
Q 12.109375 9.234375 16.796875 8.0625 
Q 21.484375 6.890625 26.703125 6.890625 
Q 35.15625 6.890625 40.078125 11.328125 
Q 45.015625 15.765625 45.015625 23.390625 
Q 45.015625 31 40.078125 35.4375 
Q 35.15625 39.890625 26.703125 39.890625 
Q 22.75 39.890625 18.8125 39.015625 
Q 14.890625 38.140625 10.796875 36.28125 
z
" id="DejaVuSans-53"/>
      </defs>
      <g transform="translate(331.281795 73.30308)scale(0.1 -0.1)">
       <use xlink:href="#DejaVuSans-52"/>
       <use x="63.623047" xlink:href="#DejaVuSans-53"/>
       <use x="127.246094" xlink:href="#DejaVuSans-176"/>
      </g>
     </g>
    </g>
    <g id="xtick_3">
     <g id="line2d_3">
      <path clip-path="url(#p8924180fa0)" d="M 236.16 174.528 
L 236.16 41.472 
" style="fill:none;stroke:#b0b0b0;stroke-linecap:square;stroke-width:0.8;"/>
     </g>
     <g id="text_3">
      <!-- 90° -->
      <defs>
       <path d="M 10.984375 1.515625 
L 10.984375 10.5 
Q 14.703125 8.734375 18.5 7.8125 
Q 22.3125 6.890625 25.984375 6.890625 
Q 35.75 6.890625 40.890625 13.453125 
Q 46.046875 20.015625 46.78125 33.40625 
Q 43.953125 29.203125 39.59375 26.953125 
Q 35.25 24.703125 29.984375 24.703125 
Q 19.046875 24.703125 12.671875 31.3125 
Q 6.296875 37.9375 6.296875 49.421875 
Q 6.296875 60.640625 12.9375 67.421875 
Q 19.578125 74.21875 30.609375 74.21875 
Q 43.265625 74.21875 49.921875 64.515625 
Q 56.59375 54.828125 56.59375 36.375 
Q 56.59375 19.140625 48.40625 8.859375 
Q 40.234375 -1.421875 26.421875 -1.421875 
Q 22.703125 -1.421875 18.890625 -0.6875 
Q 15.09375 0.046875 10.984375 1.515625 
z
M 30.609375 32.421875 
Q 37.25 32.421875 41.125 36.953125 
Q 45.015625 41.5 45.015625 49.421875 
Q 45.015625 57.28125 41.125 61.84375 
Q 37.25 66.40625 30.609375 66.40625 
Q 23.96875 66.40625 20.09375 61.84375 
Q 16.21875 57.28125 16.21875 49.421875 
Q 16.21875 41.5 20.09375 36.953125 
Q 23.96875 32.421875 30.609375 32.421875 
z
" id="DejaVuSans-57"/>
      </defs>
      <g transform="translate(227.2975 30.231375)scale(0.1 -0.1)">
       <use xlink:href="#DejaVuSans-57"/>
       <use x="63.623047" xlink:href="#DejaVuSans-48"/>
       <use x="127.246094" xlink:href="#DejaVuSans-176"/>
      </g>
     </g>
    </g>
    <g id="xtick_4">
     <g id="line2d_4">
      <path clip-path="url(#p8924180fa0)" d="M 236.16 174.528 
L 142.0752 80.4432 
" style="fill:none;stroke:#b0b0b0;stroke-linecap:square;stroke-width:0.8;"/>
     </g>
     <g id="text_4">
      <!-- 135° -->
      <defs>
       <path d="M 12.40625 8.296875 
L 28.515625 8.296875 
L 28.515625 63.921875 
L 10.984375 60.40625 
L 10.984375 69.390625 
L 28.421875 72.90625 
L 38.28125 72.90625 
L 38.28125 8.296875 
L 54.390625 8.296875 
L 54.390625 0 
L 12.40625 0 
z
" id="DejaVuSans-49"/>
       <path d="M 40.578125 39.3125 
Q 47.65625 37.796875 51.625 33 
Q 55.609375 28.21875 55.609375 21.1875 
Q 55.609375 10.40625 48.1875 4.484375 
Q 40.765625 -1.421875 27.09375 -1.421875 
Q 22.515625 -1.421875 17.65625 -0.515625 
Q 12.796875 0.390625 7.625 2.203125 
L 7.625 11.71875 
Q 11.71875 9.328125 16.59375 8.109375 
Q 21.484375 6.890625 26.8125 6.890625 
Q 36.078125 6.890625 40.9375 10.546875 
Q 45.796875 14.203125 45.796875 21.1875 
Q 45.796875 27.640625 41.28125 31.265625 
Q 36.765625 34.90625 28.71875 34.90625 
L 20.21875 34.90625 
L 20.21875 43.015625 
L 29.109375 43.015625 
Q 36.375 43.015625 40.234375 45.921875 
Q 44.09375 48.828125 44.09375 54.296875 
Q 44.09375 59.90625 40.109375 62.90625 
Q 36.140625 65.921875 28.71875 65.921875 
Q 24.65625 65.921875 20.015625 65.03125 
Q 15.375 64.15625 9.8125 62.3125 
L 9.8125 71.09375 
Q 15.4375 72.65625 20.34375 73.4375 
Q 25.25 74.21875 29.59375 74.21875 
Q 40.828125 74.21875 47.359375 69.109375 
Q 53.90625 64.015625 53.90625 55.328125 
Q 53.90625 49.265625 50.4375 45.09375 
Q 46.96875 40.921875 40.578125 39.3125 
z
" id="DejaVuSans-51"/>
      </defs>
      <g transform="translate(120.131955 73.30308)scale(0.1 -0.1)">
       <use xlink:href="#DejaVuSans-49"/>
       <use x="63.623047" xlink:href="#DejaVuSans-51"/>
       <use x="127.246094" xlink:href="#DejaVuSans-53"/>
       <use x="190.869141" xlink:href="#DejaVuSans-176"/>
      </g>
     </g>
    </g>
    <g id="xtick_5">
     <g id="line2d_5">
      <path clip-path="url(#p8924180fa0)" d="M 236.16 174.528 
L 103.104 174.528 
" style="fill:none;stroke:#b0b0b0;stroke-linecap:square;stroke-width:0.8;"/>
     </g>
     <g id="text_5">
      <!-- 180° -->
      <defs>
       <path d="M 31.78125 34.625 
Q 24.75 34.625 20.71875 30.859375 
Q 16.703125 27.09375 16.703125 20.515625 
Q 16.703125 13.921875 20.71875 10.15625 
Q 24.75 6.390625 31.78125 6.390625 
Q 38.8125 6.390625 42.859375 10.171875 
Q 46.921875 13.96875 46.921875 20.515625 
Q 46.921875 27.09375 42.890625 30.859375 
Q 38.875 34.625 31.78125 34.625 
z
M 21.921875 38.8125 
Q 15.578125 40.375 12.03125 44.71875 
Q 8.5 49.078125 8.5 55.328125 
Q 8.5 64.0625 14.71875 69.140625 
Q 20.953125 74.21875 31.78125 74.21875 
Q 42.671875 74.21875 48.875 69.140625 
Q 55.078125 64.0625 55.078125 55.328125 
Q 55.078125 49.078125 51.53125 44.71875 
Q 48 40.375 41.703125 38.8125 
Q 48.828125 37.15625 52.796875 32.3125 
Q 56.78125 27.484375 56.78125 20.515625 
Q 56.78125 9.90625 50.3125 4.234375 
Q 43.84375 -1.421875 31.78125 -1.421875 
Q 19.734375 -1.421875 13.25 4.234375 
Q 6.78125 9.90625 6.78125 20.515625 
Q 6.78125 27.484375 10.78125 32.3125 
Q 14.796875 37.15625 21.921875 38.8125 
z
M 18.3125 54.390625 
Q 18.3125 48.734375 21.84375 45.5625 
Q 25.390625 42.390625 31.78125 42.390625 
Q 38.140625 42.390625 41.71875 45.5625 
Q 45.3125 48.734375 45.3125 54.390625 
Q 45.3125 60.0625 41.71875 63.234375 
Q 38.140625 66.40625 31.78125 66.40625 
Q 25.390625 66.40625 21.84375 63.234375 
Q 18.3125 60.0625 18.3125 54.390625 
z
" id="DejaVuSans-56"/>
      </defs>
      <g transform="translate(77.06025 177.287375)scale(0.1 -0.1)">
       <use xlink:href="#DejaVuSans-49"/>
       <use x="63.623047" xlink:href="#DejaVuSans-56"/>
       <use x="127.246094" xlink:href="#DejaVuSans-48"/>
       <use x="190.869141" xlink:href="#DejaVuSans-176"/>
      </g>
     </g>
    </g>
    <g id="xtick_6">
     <g id="line2d_6">
      <path clip-path="url(#p8924180fa0)" d="M 236.16 174.528 
L 142.0752 268.6128 
" style="fill:none;stroke:#b0b0b0;stroke-linecap:square;stroke-width:0.8;"/>
     </g>
     <g id="text_6">
      <!-- 225° -->
      <defs>
       <path d="M 19.1875 8.296875 
L 53.609375 8.296875 
L 53.609375 0 
L 7.328125 0 
L 7.328125 8.296875 
Q 12.9375 14.109375 22.625 23.890625 
Q 32.328125 33.6875 34.8125 36.53125 
Q 39.546875 41.84375 41.421875 45.53125 
Q 43.3125 49.21875 43.3125 52.78125 
Q 43.3125 58.59375 39.234375 62.25 
Q 35.15625 65.921875 28.609375 65.921875 
Q 23.96875 65.921875 18.8125 64.3125 
Q 13.671875 62.703125 7.8125 59.421875 
L 7.8125 69.390625 
Q 13.765625 71.78125 18.9375 73 
Q 24.125 74.21875 28.421875 74.21875 
Q 39.75 74.21875 46.484375 68.546875 
Q 53.21875 62.890625 53.21875 53.421875 
Q 53.21875 48.921875 51.53125 44.890625 
Q 49.859375 40.875 45.40625 35.40625 
Q 44.1875 33.984375 37.640625 27.21875 
Q 31.109375 20.453125 19.1875 8.296875 
z
" id="DejaVuSans-50"/>
      </defs>
      <g transform="translate(120.131955 281.27167)scale(0.1 -0.1)">
       <use xlink:href="#DejaVuSans-50"/>
       <use x="63.623047" xlink:href="#DejaVuSans-50"/>
       <use x="127.246094" xlink:href="#DejaVuSans-53"/>
       <use x="190.869141" xlink:href="#DejaVuSans-176"/>
      </g>
     </g>
    </g>
    <g id="xtick_7">
     <g id="line2d_7">
      <path clip-path="url(#p8924180fa0)" d="M 236.16 174.528 
L 236.16 307.584 
" style="fill:none;stroke:#b0b0b0;stroke-linecap:square;stroke-width:0.8;"/>
     </g>
     <g id="text_7">
      <!-- 270° -->
      <defs>
       <path d="M 8.203125 72.90625 
L 55.078125 72.90625 
L 55.078125 68.703125 
L 28.609375 0 
L 18.3125 0 
L 43.21875 64.59375 
L 8.203125 64.59375 
z
" id="DejaVuSans-55"/>
      </defs>
      <g transform="translate(224.11625 324.343375)scale(0.1 -0.1)">
       <use xlink:href="#DejaVuSans-50"/>
       <use x="63.623047" xlink:href="#DejaVuSans-55"/>
       <use x="127.246094" xlink:href="#DejaVuSans-48"/>
       <use x="190.869141" xlink:href="#DejaVuSans-176"/>
      </g>
     </g>
    </g>
    <g id="xtick_8">
     <g id="line2d_8">
      <path clip-path="url(#p8924180fa0)" d="M 236.16 174.528 
L 330.2448 268.6128 
" style="fill:none;stroke:#b0b0b0;stroke-linecap:square;stroke-width:0.8;"/>
     </g>
     <g id="text_8">
      <!-- 315° -->
      <g transform="translate(328.100545 281.27167)scale(0.1 -0.1)">
       <use xlink:href="#DejaVuSans-51"/>
       <use x="63.623047" xlink:href="#DejaVuSans-49"/>
       <use x="127.246094" xlink:href="#DejaVuSans-53"/>
       <use x="190.869141" xlink:href="#DejaVuSans-176"/>
      </g>
     </g>
    </g>
   </g>
   <g id="matplotlib.axis_2">
    <g id="ytick_1">
     <g id="line2d_9">
      <path clip-path="url(#p8924180fa0)" d="M 239.968 174.528 
L 239.854886 173.606761 
L 239.522264 172.740252 
L 238.989895 171.979951 
L 238.289407 171.371025 
L 237.462413 170.949651 
L 236.558044 170.740861 
L 235.630029 170.757059 
L 234.733498 170.997284 
L 233.921714 171.447263 
L 233.242903 172.080265 
L 232.737392 172.858683 
L 232.435214 173.736272 
L 232.35432 174.660897 
L 232.499515 175.577627 
L 232.862175 176.432 
L 233.420754 177.173259 
L 234.142067 177.757367 
L 234.983263 178.149623 
L 235.894367 178.326724 
L 236.821252 178.278148 
L 237.708853 178.006781 
L 238.504439 177.528745 
L 239.160745 176.872439 
L 239.638781 176.076853 
L 239.910148 175.189252 
L 239.968 174.528 
L 239.968 174.528 
" style="fill:none;stroke:#b0b0b0;stroke-linecap:square;stroke-width:0.8;"/>
     </g>
     <g id="text_9">
      <!-- 0 -->
      <g transform="translate(239.678133 170.991054)scale(0.1 -0.1)">
       <use xlink:href="#DejaVuSans-48"/>
      </g>
     </g>
    </g>
    <g id="ytick_2">
     <g id="line2d_10">
      <path clip-path="url(#p8924180fa0)" d="M 262.368 174.528 
L 262.22443 171.788518 
L 261.795292 169.07905 
L 261.085289 166.429283 
L 260.102199 163.868246 
L 258.856794 161.424 
L 257.362717 159.123324 
L 255.63634 156.991425 
L 253.696575 155.05166 
L 251.564676 153.325283 
L 249.264 151.831206 
L 246.819754 150.585801 
L 244.258717 149.602711 
L 241.60895 148.892708 
L 238.899482 148.46357 
L 236.16 148.32 
L 233.420518 148.46357 
L 230.71105 148.892708 
L 228.061283 149.602711 
L 225.500246 150.585801 
L 223.056 151.831206 
L 220.755324 153.325283 
L 218.623425 155.05166 
L 216.68366 156.991425 
L 214.957283 159.123324 
L 213.463206 161.424 
L 212.217801 163.868246 
L 211.234711 166.429283 
L 210.524708 169.07905 
L 210.09557 171.788518 
L 209.952 174.528 
L 210.09557 177.267482 
L 210.524708 179.97695 
L 211.234711 182.626717 
L 212.217801 185.187754 
L 213.463206 187.632 
L 214.957283 189.932676 
L 216.68366 192.064575 
L 218.623425 194.00434 
L 220.755324 195.730717 
L 223.056 197.224794 
L 225.500246 198.470199 
L 228.061283 199.453289 
L 230.71105 200.163292 
L 233.420518 200.59243 
L 236.16 200.736 
L 238.899482 200.59243 
L 241.60895 200.163292 
L 244.258717 199.453289 
L 246.819754 198.470199 
L 249.264 197.224794 
L 251.564676 195.730717 
L 253.696575 194.00434 
L 255.63634 192.064575 
L 257.362717 189.932676 
L 258.856794 187.632 
L 260.102199 185.187754 
L 261.085289 182.626717 
L 261.795292 179.97695 
L 262.22443 177.267482 
L 262.368 174.528 
L 262.368 174.528 
" style="fill:none;stroke:#b0b0b0;stroke-linecap:square;stroke-width:0.8;"/>
     </g>
     <g id="text_10">
      <!-- 50 -->
      <g transform="translate(260.373035 162.418945)scale(0.1 -0.1)">
       <use xlink:href="#DejaVuSans-53"/>
       <use x="63.623047" xlink:href="#DejaVuSans-48"/>
      </g>
     </g>
    </g>
    <g id="ytick_3">
     <g id="line2d_11">
      <path clip-path="url(#p8924180fa0)" d="M 284.768 174.528 
L 284.649593 171.137277 
L 284.29495 167.763074 
L 283.705799 164.421829 
L 282.885009 161.129819 
L 281.836579 157.903085 
L 280.565618 154.757345 
L 279.078317 151.707926 
L 277.381922 148.769684 
L 275.484698 145.956934 
L 273.395888 143.28338 
L 271.125669 140.762046 
L 268.685101 138.405216 
L 266.086073 136.224373 
L 263.341249 134.230142 
L 260.464 132.432237 
L 257.468345 130.839419 
L 254.368877 129.459447 
L 251.180698 128.299045 
L 247.91934 127.363865 
L 244.600691 126.658465 
L 241.24092 126.18628 
L 237.856395 125.949611 
L 234.463605 125.949611 
L 231.07908 126.18628 
L 227.719309 126.658465 
L 224.40066 127.363865 
L 221.139302 128.299045 
L 217.951123 129.459447 
L 214.851655 130.839419 
L 211.856 132.432237 
L 208.978751 134.230142 
L 206.233927 136.224373 
L 203.634899 138.405216 
L 201.194331 140.762046 
L 198.924112 143.28338 
L 196.835302 145.956934 
L 194.938078 148.769684 
L 193.241683 151.707926 
L 191.754382 154.757345 
L 190.483421 157.903085 
L 189.434991 161.129819 
L 188.614201 164.421829 
L 188.02505 167.763074 
L 187.670407 171.137277 
L 187.552 174.528 
L 187.670407 177.918723 
L 188.02505 181.292926 
L 188.614201 184.634171 
L 189.434991 187.926181 
L 190.483421 191.152915 
L 191.754382 194.298655 
L 193.241683 197.348074 
L 194.938078 200.286316 
L 196.835302 203.099066 
L 198.924112 205.77262 
L 201.194331 208.293954 
L 203.634899 210.650784 
L 206.233927 212.831627 
L 208.978751 214.825858 
L 211.856 216.623763 
L 214.851655 218.216581 
L 217.951123 219.596553 
L 221.139302 220.756955 
L 224.40066 221.692135 
L 227.719309 222.397535 
L 231.07908 222.86972 
L 234.463605 223.106389 
L 237.856395 223.106389 
L 241.24092 222.86972 
L 244.600691 222.397535 
L 247.91934 221.692135 
L 251.180698 220.756955 
L 254.368877 219.596553 
L 257.468345 218.216581 
L 260.464 216.623763 
L 263.341249 214.825858 
L 266.086073 212.831627 
L 268.685101 210.650784 
L 271.125669 208.293954 
L 273.395888 205.77262 
L 275.484698 203.099066 
L 277.381922 200.286316 
L 279.078317 197.348074 
L 280.565618 194.298655 
L 281.836579 191.152915 
L 282.885009 187.926181 
L 283.705799 184.634171 
L 284.29495 181.292926 
L 284.649593 177.918723 
L 284.768 174.528 
L 284.768 174.528 
" style="fill:none;stroke:#b0b0b0;stroke-linecap:square;stroke-width:0.8;"/>
     </g>
     <g id="text_11">
      <!-- 100 -->
      <g transform="translate(281.067936 153.846836)scale(0.1 -0.1)">
       <use xlink:href="#DejaVuSans-49"/>
       <use x="63.623047" xlink:href="#DejaVuSans-48"/>
       <use x="127.246094" xlink:href="#DejaVuSans-48"/>
      </g>
     </g>
    </g>
    <g id="ytick_4">
     <g id="line2d_12">
      <path clip-path="url(#p8924180fa0)" d="M 307.168 174.528 
L 306.995028 169.574732 
L 306.476955 164.645596 
L 305.616305 159.764607 
L 304.417271 154.955543 
L 302.885694 150.241834 
L 301.029036 145.646444 
L 298.856343 141.191763 
L 296.378199 136.899493 
L 293.606679 132.790545 
L 290.555284 128.884937 
L 287.238881 125.201698 
L 283.673626 121.758772 
L 279.87689 118.572932 
L 275.86717 115.6597 
L 271.664 113.033268 
L 267.287858 110.706432 
L 262.760065 108.690529 
L 258.102679 106.995379 
L 253.33839 105.629241 
L 248.49041 104.598771 
L 243.582357 103.908989 
L 238.638143 103.563256 
L 233.681857 103.563256 
L 228.737643 103.908989 
L 223.82959 104.598771 
L 218.98161 105.629241 
L 214.217321 106.995379 
L 209.559935 108.690529 
L 205.032142 110.706432 
L 200.656 113.033268 
L 196.45283 115.6597 
L 192.44311 118.572932 
L 188.646374 121.758772 
L 185.081119 125.201698 
L 181.764716 128.884937 
L 178.713321 132.790545 
L 175.941801 136.899493 
L 173.463657 141.191763 
L 171.290964 145.646444 
L 169.434306 150.241834 
L 167.902729 154.955543 
L 166.703695 159.764607 
L 165.843045 164.645596 
L 165.324972 169.574732 
L 165.152 174.528 
L 165.324972 179.481268 
L 165.843045 184.410404 
L 166.703695 189.291393 
L 167.902729 194.100457 
L 169.434306 198.814166 
L 171.290964 203.409556 
L 173.463657 207.864237 
L 175.941801 212.156507 
L 178.713321 216.265455 
L 181.764716 220.171063 
L 185.081119 223.854302 
L 188.646374 227.297228 
L 192.44311 230.483068 
L 196.45283 233.3963 
L 200.656 236.022732 
L 205.032142 238.349568 
L 209.559935 240.365471 
L 214.217321 242.060621 
L 218.98161 243.426759 
L 223.82959 244.457229 
L 228.737643 245.147011 
L 233.681857 245.492744 
L 238.638143 245.492744 
L 243.582357 245.147011 
L 248.49041 244.457229 
L 253.33839 243.426759 
L 258.102679 242.060621 
L 262.760065 240.365471 
L 267.287858 238.349568 
L 271.664 236.022732 
L 275.86717 233.3963 
L 279.87689 230.483068 
L 283.673626 227.297228 
L 287.238881 223.854302 
L 290.555284 220.171063 
L 293.606679 216.265455 
L 296.378199 212.156507 
L 298.856343 207.864237 
L 301.029036 203.409556 
L 302.885694 198.814166 
L 304.417271 194.100457 
L 305.616305 189.291393 
L 306.476955 184.410404 
L 306.995028 179.481268 
L 307.168 174.528 
L 307.168 174.528 
" style="fill:none;stroke:#b0b0b0;stroke-linecap:square;stroke-width:0.8;"/>
     </g>
     <g id="text_12">
      <!-- 150 -->
      <g transform="translate(301.762838 145.274727)scale(0.1 -0.1)">
       <use xlink:href="#DejaVuSans-49"/>
       <use x="63.623047" xlink:href="#DejaVuSans-53"/>
       <use x="127.246094" xlink:href="#DejaVuSans-48"/>
      </g>
     </g>
    </g>
    <g id="ytick_5">
     <g id="line2d_13">
      <path clip-path="url(#p8924180fa0)" d="M 329.568 174.528 
L 329.511098 171.268108 
L 329.340463 168.012187 
L 329.056301 164.764205 
L 328.65896 161.528119 
L 328.148923 158.307871 
L 327.526811 155.107385 
L 326.793383 151.93056 
L 325.949532 148.781266 
L 324.996287 145.663341 
L 323.934808 142.580582 
L 322.766389 139.536747 
L 321.492454 136.535544 
L 320.114554 133.580628 
L 318.634369 130.6756 
L 317.053701 127.824 
L 315.374477 125.029301 
L 313.598742 122.294909 
L 311.728659 119.624155 
L 309.766508 117.020293 
L 307.714679 114.486495 
L 305.575672 112.025848 
L 303.352092 109.641351 
L 301.046649 107.335908 
L 298.662152 105.112328 
L 296.201505 102.973321 
L 293.667707 100.921492 
L 291.063845 98.959341 
L 288.393091 97.089258 
L 285.658699 95.313523 
L 282.864 93.634299 
L 280.0124 92.053631 
L 277.107372 90.573446 
L 274.152456 89.195546 
L 271.151253 87.921611 
L 268.107418 86.753192 
L 265.024659 85.691713 
L 261.906734 84.738468 
L 258.75744 83.894617 
L 255.580615 83.161189 
L 252.380129 82.539077 
L 249.159881 82.02904 
L 245.923795 81.631699 
L 242.675813 81.347537 
L 239.419892 81.176902 
L 236.16 81.12 
L 232.900108 81.176902 
L 229.644187 81.347537 
L 226.396205 81.631699 
L 223.160119 82.02904 
L 219.939871 82.539077 
L 216.739385 83.161189 
L 213.56256 83.894617 
L 210.413266 84.738468 
L 207.295341 85.691713 
L 204.212582 86.753192 
L 201.168747 87.921611 
L 198.167544 89.195546 
L 195.212628 90.573446 
L 192.3076 92.053631 
L 189.456 93.634299 
L 186.661301 95.313523 
L 183.926909 97.089258 
L 181.256155 98.959341 
L 178.652293 100.921492 
L 176.118495 102.973321 
L 173.657848 105.112328 
L 171.273351 107.335908 
L 168.967908 109.641351 
L 166.744328 112.025848 
L 164.605321 114.486495 
L 162.553492 117.020293 
L 160.591341 119.624155 
L 158.721258 122.294909 
L 156.945523 125.029301 
L 155.266299 127.824 
L 153.685631 130.6756 
L 152.205446 133.580628 
L 150.827546 136.535544 
L 149.553611 139.536747 
L 148.385192 142.580582 
L 147.323713 145.663341 
L 146.370468 148.781266 
L 145.526617 151.93056 
L 144.793189 155.107385 
L 144.171077 158.307871 
L 143.66104 161.528119 
L 143.263699 164.764205 
L 142.979537 168.012187 
L 142.808902 171.268108 
L 142.752 174.528 
L 142.808902 177.787892 
L 142.979537 181.043813 
L 143.263699 184.291795 
L 143.66104 187.527881 
L 144.171077 190.748129 
L 144.793189 193.948615 
L 145.526617 197.12544 
L 146.370468 200.274734 
L 147.323713 203.392659 
L 148.385192 206.475418 
L 149.553611 209.519253 
L 150.827546 212.520456 
L 152.205446 215.475372 
L 153.685631 218.3804 
L 155.266299 221.232 
L 156.945523 224.026699 
L 158.721258 226.761091 
L 160.591341 229.431845 
L 162.553492 232.035707 
L 164.605321 234.569505 
L 166.744328 237.030152 
L 168.967908 239.414649 
L 171.273351 241.720092 
L 173.657848 243.943672 
L 176.118495 246.082679 
L 178.652293 248.134508 
L 181.256155 250.096659 
L 183.926909 251.966742 
L 186.661301 253.742477 
L 189.456 255.421701 
L 192.3076 257.002369 
L 195.212628 258.482554 
L 198.167544 259.860454 
L 201.168747 261.134389 
L 204.212582 262.302808 
L 207.295341 263.364287 
L 210.413266 264.317532 
L 213.56256 265.161383 
L 216.739385 265.894811 
L 219.939871 266.516923 
L 223.160119 267.02696 
L 226.396205 267.424301 
L 229.644187 267.708463 
L 232.900108 267.879098 
L 236.16 267.936 
L 239.419892 267.879098 
L 242.675813 267.708463 
L 245.923795 267.424301 
L 249.159881 267.02696 
L 252.380129 266.516923 
L 255.580615 265.894811 
L 258.75744 265.161383 
L 261.906734 264.317532 
L 265.024659 263.364287 
L 268.107418 262.302808 
L 271.151253 261.134389 
L 274.152456 259.860454 
L 277.107372 258.482554 
L 280.0124 257.002369 
L 282.864 255.421701 
L 285.658699 253.742477 
L 288.393091 251.966742 
L 291.063845 250.096659 
L 293.667707 248.134508 
L 296.201505 246.082679 
L 298.662152 243.943672 
L 301.046649 241.720092 
L 303.352092 239.414649 
L 305.575672 237.030152 
L 307.714679 234.569505 
L 309.766508 232.035707 
L 311.728659 229.431845 
L 313.598742 226.761091 
L 315.374477 224.026699 
L 317.053701 221.232 
L 318.634369 218.3804 
L 320.114554 215.475372 
L 321.492454 212.520456 
L 322.766389 209.519253 
L 323.934808 206.475418 
L 324.996287 203.392659 
L 325.949532 200.274734 
L 326.793383 197.12544 
L 327.526811 193.948615 
L 328.148923 190.748129 
L 328.65896 187.527881 
L 329.056301 184.291795 
L 329.340463 181.043813 
L 329.511098 177.787892 
L 329.568 174.528 
L 329.568 174.528 
" style="fill:none;stroke:#b0b0b0;stroke-linecap:square;stroke-width:0.8;"/>
     </g>
     <g id="text_13">
      <!-- 200 -->
      <g transform="translate(322.457739 136.702618)scale(0.1 -0.1)">
       <use xlink:href="#DejaVuSans-50"/>
       <use x="63.623047" xlink:href="#DejaVuSans-48"/>
       <use x="127.246094" xlink:href="#DejaVuSans-48"/>
      </g>
     </g>
    </g>
    <g id="ytick_6">
     <g id="line2d_14">
      <path clip-path="url(#p8924180fa0)" d="M 351.968 174.528 
L 351.897453 170.486359 
L 351.685898 166.449642 
L 351.333592 162.422768 
L 350.840965 158.410642 
L 350.208616 154.418152 
L 349.437317 150.450163 
L 348.528007 146.511509 
L 347.481794 142.606989 
L 346.299953 138.74136 
L 344.983923 134.919331 
L 343.535308 131.14556 
L 341.955872 127.424643 
L 340.247541 123.761114 
L 338.412395 120.159437 
L 336.45267 116.624 
L 334.370754 113.15911 
L 332.169183 109.768988 
L 329.85064 106.457766 
L 327.417949 103.229476 
L 324.874075 100.088052 
L 322.222116 97.037323 
L 319.465304 94.081003 
L 316.606997 91.222696 
L 313.650677 88.465884 
L 310.599948 85.813925 
L 307.458524 83.270051 
L 304.230234 80.83736 
L 300.919012 78.518817 
L 297.52889 76.317246 
L 294.064 74.23533 
L 290.528563 72.275605 
L 286.926886 70.440459 
L 283.263357 68.732128 
L 279.54244 67.152692 
L 275.768669 65.704077 
L 271.94664 64.388047 
L 268.081011 63.206206 
L 264.176491 62.159993 
L 260.237837 61.250683 
L 256.269848 60.479384 
L 252.277358 59.847035 
L 248.265232 59.354408 
L 244.238358 59.002102 
L 240.201641 58.790547 
L 236.16 58.72 
L 232.118359 58.790547 
L 228.081642 59.002102 
L 224.054768 59.354408 
L 220.042642 59.847035 
L 216.050152 60.479384 
L 212.082163 61.250683 
L 208.143509 62.159993 
L 204.238989 63.206206 
L 200.37336 64.388047 
L 196.551331 65.704077 
L 192.77756 67.152692 
L 189.056643 68.732128 
L 185.393114 70.440459 
L 181.791437 72.275605 
L 178.256 74.23533 
L 174.79111 76.317246 
L 171.400988 78.518817 
L 168.089766 80.83736 
L 164.861476 83.270051 
L 161.720052 85.813925 
L 158.669323 88.465884 
L 155.713003 91.222696 
L 152.854696 94.081003 
L 150.097884 97.037323 
L 147.445925 100.088052 
L 144.902051 103.229476 
L 142.46936 106.457766 
L 140.150817 109.768988 
L 137.949246 113.15911 
L 135.86733 116.624 
L 133.907605 120.159437 
L 132.072459 123.761114 
L 130.364128 127.424643 
L 128.784692 131.14556 
L 127.336077 134.919331 
L 126.020047 138.74136 
L 124.838206 142.606989 
L 123.791993 146.511509 
L 122.882683 150.450163 
L 122.111384 154.418152 
L 121.479035 158.410642 
L 120.986408 162.422768 
L 120.634102 166.449642 
L 120.422547 170.486359 
L 120.352 174.528 
L 120.422547 178.569641 
L 120.634102 182.606358 
L 120.986408 186.633232 
L 121.479035 190.645358 
L 122.111384 194.637848 
L 122.882683 198.605837 
L 123.791993 202.544491 
L 124.838206 206.449011 
L 126.020047 210.31464 
L 127.336077 214.136669 
L 128.784692 217.91044 
L 130.364128 221.631357 
L 132.072459 225.294886 
L 133.907605 228.896563 
L 135.86733 232.432 
L 137.949246 235.89689 
L 140.150817 239.287012 
L 142.46936 242.598234 
L 144.902051 245.826524 
L 147.445925 248.967948 
L 150.097884 252.018677 
L 152.854696 254.974997 
L 155.713003 257.833304 
L 158.669323 260.590116 
L 161.720052 263.242075 
L 164.861476 265.785949 
L 168.089766 268.21864 
L 171.400988 270.537183 
L 174.79111 272.738754 
L 178.256 274.82067 
L 181.791437 276.780395 
L 185.393114 278.615541 
L 189.056643 280.323872 
L 192.77756 281.903308 
L 196.551331 283.351923 
L 200.37336 284.667953 
L 204.238989 285.849794 
L 208.143509 286.896007 
L 212.082163 287.805317 
L 216.050152 288.576616 
L 220.042642 289.208965 
L 224.054768 289.701592 
L 228.081642 290.053898 
L 232.118359 290.265453 
L 236.16 290.336 
L 240.201641 290.265453 
L 244.238358 290.053898 
L 248.265232 289.701592 
L 252.277358 289.208965 
L 256.269848 288.576616 
L 260.237837 287.805317 
L 264.176491 286.896007 
L 268.081011 285.849794 
L 271.94664 284.667953 
L 275.768669 283.351923 
L 279.54244 281.903308 
L 283.263357 280.323872 
L 286.926886 278.615541 
L 290.528563 276.780395 
L 294.064 274.82067 
L 297.52889 272.738754 
L 300.919012 270.537183 
L 304.230234 268.21864 
L 307.458524 265.785949 
L 310.599948 263.242075 
L 313.650677 260.590116 
L 316.606997 257.833304 
L 319.465304 254.974997 
L 322.222116 252.018677 
L 324.874075 248.967948 
L 327.417949 245.826524 
L 329.85064 242.598234 
L 332.169183 239.287012 
L 334.370754 235.89689 
L 336.45267 232.432 
L 338.412395 228.896563 
L 340.247541 225.294886 
L 341.955872 221.631357 
L 343.535308 217.91044 
L 344.983923 214.136669 
L 346.299953 210.31464 
L 347.481794 206.449011 
L 348.528007 202.544491 
L 349.437317 198.605837 
L 350.208616 194.637848 
L 350.840965 190.645358 
L 351.333592 186.633232 
L 351.685898 182.606358 
L 351.897453 178.569641 
L 351.968 174.528 
L 351.968 174.528 
" style="fill:none;stroke:#b0b0b0;stroke-linecap:square;stroke-width:0.8;"/>
     </g>
     <g id="text_14">
      <!-- 250 -->
      <g transform="translate(343.152641 128.13051)scale(0.1 -0.1)">
       <use xlink:href="#DejaVuSans-50"/>
       <use x="63.623047" xlink:href="#DejaVuSans-53"/>
       <use x="127.246094" xlink:href="#DejaVuSans-48"/>
      </g>
     </g>
    </g>
   </g>
   <g id="line2d_15">
    <defs>
     <path d="M 0 1.5 
C 0.397805 1.5 0.77937 1.341951 1.06066 1.06066 
C 1.341951 0.77937 1.5 0.397805 1.5 0 
C 1.5 -0.397805 1.341951 -0.77937 1.06066 -1.06066 
C 0.77937 -1.341951 0.397805 -1.5 0 -1.5 
C -0.397805 -1.5 -0.77937 -1.341951 -1.06066 -1.06066 
C -1.341951 -0.77937 -1.5 -0.397805 -1.5 0 
C -1.5 0.397805 -1.341951 0.77937 -1.06066 1.06066 
C -0.77937 1.341951 -0.397805 1.5 0 1.5 
z
" id="me4dc9778e0" style="stroke:#0000ff;"/>
    </defs>
    <g clip-path="url(#p8924180fa0)">
     <use style="fill:#0000ff;stroke:#0000ff;" x="227.921016" xlink:href="#me4dc9778e0" y="165.980279"/>
     <use style="fill:#0000ff;stroke:#0000ff;" x="227.612279" xlink:href="#me4dc9778e0" y="166.289016"/>
     <use style="fill:#0000ff;stroke:#0000ff;" x="227.280847" xlink:href="#me4dc9778e0" y="166.647326"/>
     <use style="fill:#0000ff;stroke:#0000ff;" x="226.923281" xlink:href="#me4dc9778e0" y="167.069622"/>
     <use style="fill:#0000ff;stroke:#0000ff;" x="226.535501" xlink:href="#me4dc9778e0" y="167.577215"/>
     <use style="fill:#0000ff;stroke:#0000ff;" x="226.112904" xlink:href="#me4dc9778e0" y="168.203425"/>
     <use style="fill:#0000ff;stroke:#0000ff;" x="225.651214" xlink:href="#me4dc9778e0" y="169.004431"/>
     <use style="fill:#0000ff;stroke:#0000ff;" x="225.150392" xlink:href="#me4dc9778e0" y="170.085825"/>
     <use style="fill:#0000ff;stroke:#0000ff;" x="231.460157" xlink:href="#me4dc9778e0" y="167.701403"/>
     <use style="fill:#0000ff;stroke:#0000ff;" x="231.307565" xlink:href="#me4dc9778e0" y="167.80901"/>
     <use style="fill:#0000ff;stroke:#0000ff;" x="231.147168" xlink:href="#me4dc9778e0" y="167.927814"/>
     <use style="fill:#0000ff;stroke:#0000ff;" x="230.978119" xlink:href="#me4dc9778e0" y="168.059688"/>
     <use style="fill:#0000ff;stroke:#0000ff;" x="230.799432" xlink:href="#me4dc9778e0" y="168.206983"/>
     <use style="fill:#0000ff;stroke:#0000ff;" x="230.60994" xlink:href="#me4dc9778e0" y="168.372695"/>
     <use style="fill:#0000ff;stroke:#0000ff;" x="230.408256" xlink:href="#me4dc9778e0" y="168.560723"/>
     <use style="fill:#0000ff;stroke:#0000ff;" x="230.192723" xlink:href="#me4dc9778e0" y="168.776256"/>
     <use style="fill:#0000ff;stroke:#0000ff;" x="229.961346" xlink:href="#me4dc9778e0" y="169.026398"/>
     <use style="fill:#0000ff;stroke:#0000ff;" x="229.711724" xlink:href="#me4dc9778e0" y="169.321208"/>
     <use style="fill:#0000ff;stroke:#0000ff;" x="229.44101" xlink:href="#me4dc9778e0" y="169.675565"/>
     <use style="fill:#0000ff;stroke:#0000ff;" x="229.14599" xlink:href="#me4dc9778e0" y="170.112731"/>
     <use style="fill:#0000ff;stroke:#0000ff;" x="235.659934" xlink:href="#me4dc9778e0" y="168.500709"/>
     <use style="fill:#0000ff;stroke:#0000ff;" x="235.630095" xlink:href="#me4dc9778e0" y="168.503259"/>
     <use style="fill:#0000ff;stroke:#0000ff;" x="235.599841" xlink:href="#me4dc9778e0" y="168.505997"/>
     <use style="fill:#0000ff;stroke:#0000ff;" x="235.569159" xlink:href="#me4dc9778e0" y="168.508929"/>
     <use style="fill:#0000ff;stroke:#0000ff;" x="235.538039" xlink:href="#me4dc9778e0" y="168.512065"/>
     <use style="fill:#0000ff;stroke:#0000ff;" x="235.506467" xlink:href="#me4dc9778e0" y="168.515413"/>
     <use style="fill:#0000ff;stroke:#0000ff;" x="235.474432" xlink:href="#me4dc9778e0" y="168.518982"/>
     <use style="fill:#0000ff;stroke:#0000ff;" x="235.44192" xlink:href="#me4dc9778e0" y="168.52278"/>
     <use style="fill:#0000ff;stroke:#0000ff;" x="235.408918" xlink:href="#me4dc9778e0" y="168.526818"/>
     <use style="fill:#0000ff;stroke:#0000ff;" x="235.375411" xlink:href="#me4dc9778e0" y="168.531107"/>
     <use style="fill:#0000ff;stroke:#0000ff;" x="235.341384" xlink:href="#me4dc9778e0" y="168.535657"/>
     <use style="fill:#0000ff;stroke:#0000ff;" x="235.306821" xlink:href="#me4dc9778e0" y="168.54048"/>
     <use style="fill:#0000ff;stroke:#0000ff;" x="235.271707" xlink:href="#me4dc9778e0" y="168.545589"/>
     <use style="fill:#0000ff;stroke:#0000ff;" x="235.236024" xlink:href="#me4dc9778e0" y="168.550996"/>
     <use style="fill:#0000ff;stroke:#0000ff;" x="235.199754" xlink:href="#me4dc9778e0" y="168.556716"/>
     <use style="fill:#0000ff;stroke:#0000ff;" x="235.162879" xlink:href="#me4dc9778e0" y="168.562763"/>
     <use style="fill:#0000ff;stroke:#0000ff;" x="235.125378" xlink:href="#me4dc9778e0" y="168.569153"/>
     <use style="fill:#0000ff;stroke:#0000ff;" x="235.087231" xlink:href="#me4dc9778e0" y="168.575902"/>
     <use style="fill:#0000ff;stroke:#0000ff;" x="235.048416" xlink:href="#me4dc9778e0" y="168.583029"/>
     <use style="fill:#0000ff;stroke:#0000ff;" x="235.008911" xlink:href="#me4dc9778e0" y="168.590551"/>
     <use style="fill:#0000ff;stroke:#0000ff;" x="234.968691" xlink:href="#me4dc9778e0" y="168.59849"/>
     <use style="fill:#0000ff;stroke:#0000ff;" x="234.927731" xlink:href="#me4dc9778e0" y="168.606867"/>
     <use style="fill:#0000ff;stroke:#0000ff;" x="234.886004" xlink:href="#me4dc9778e0" y="168.615705"/>
     <use style="fill:#0000ff;stroke:#0000ff;" x="234.843482" xlink:href="#me4dc9778e0" y="168.625028"/>
     <use style="fill:#0000ff;stroke:#0000ff;" x="234.800135" xlink:href="#me4dc9778e0" y="168.634862"/>
     <use style="fill:#0000ff;stroke:#0000ff;" x="234.755931" xlink:href="#me4dc9778e0" y="168.645237"/>
     <use style="fill:#0000ff;stroke:#0000ff;" x="234.710838" xlink:href="#me4dc9778e0" y="168.656183"/>
     <use style="fill:#0000ff;stroke:#0000ff;" x="234.66482" xlink:href="#me4dc9778e0" y="168.667732"/>
     <use style="fill:#0000ff;stroke:#0000ff;" x="234.617839" xlink:href="#me4dc9778e0" y="168.67992"/>
     <use style="fill:#0000ff;stroke:#0000ff;" x="234.569855" xlink:href="#me4dc9778e0" y="168.692784"/>
     <use style="fill:#0000ff;stroke:#0000ff;" x="234.520826" xlink:href="#me4dc9778e0" y="168.706367"/>
     <use style="fill:#0000ff;stroke:#0000ff;" x="234.470706" xlink:href="#me4dc9778e0" y="168.720712"/>
     <use style="fill:#0000ff;stroke:#0000ff;" x="234.419449" xlink:href="#me4dc9778e0" y="168.735869"/>
     <use style="fill:#0000ff;stroke:#0000ff;" x="234.367" xlink:href="#me4dc9778e0" y="168.751889"/>
     <use style="fill:#0000ff;stroke:#0000ff;" x="234.313307" xlink:href="#me4dc9778e0" y="168.768831"/>
     <use style="fill:#0000ff;stroke:#0000ff;" x="234.258309" xlink:href="#me4dc9778e0" y="168.786757"/>
     <use style="fill:#0000ff;stroke:#0000ff;" x="234.201943" xlink:href="#me4dc9778e0" y="168.805735"/>
     <use style="fill:#0000ff;stroke:#0000ff;" x="234.144141" xlink:href="#me4dc9778e0" y="168.825841"/>
     <use style="fill:#0000ff;stroke:#0000ff;" x="234.084829" xlink:href="#me4dc9778e0" y="168.847158"/>
     <use style="fill:#0000ff;stroke:#0000ff;" x="234.023927" xlink:href="#me4dc9778e0" y="168.869776"/>
     <use style="fill:#0000ff;stroke:#0000ff;" x="233.96135" xlink:href="#me4dc9778e0" y="168.893797"/>
     <use style="fill:#0000ff;stroke:#0000ff;" x="233.897005" xlink:href="#me4dc9778e0" y="168.919332"/>
     <use style="fill:#0000ff;stroke:#0000ff;" x="233.83079" xlink:href="#me4dc9778e0" y="168.946505"/>
     <use style="fill:#0000ff;stroke:#0000ff;" x="233.762595" xlink:href="#me4dc9778e0" y="168.975455"/>
     <use style="fill:#0000ff;stroke:#0000ff;" x="233.692299" xlink:href="#me4dc9778e0" y="169.006338"/>
     <use style="fill:#0000ff;stroke:#0000ff;" x="233.61977" xlink:href="#me4dc9778e0" y="169.039326"/>
     <use style="fill:#0000ff;stroke:#0000ff;" x="233.544864" xlink:href="#me4dc9778e0" y="169.074618"/>
     <use style="fill:#0000ff;stroke:#0000ff;" x="233.467421" xlink:href="#me4dc9778e0" y="169.112437"/>
     <use style="fill:#0000ff;stroke:#0000ff;" x="233.387264" xlink:href="#me4dc9778e0" y="169.153036"/>
     <use style="fill:#0000ff;stroke:#0000ff;" x="233.304196" xlink:href="#me4dc9778e0" y="169.196707"/>
     <use style="fill:#0000ff;stroke:#0000ff;" x="233.218" xlink:href="#me4dc9778e0" y="169.243784"/>
     <use style="fill:#0000ff;stroke:#0000ff;" x="233.128432" xlink:href="#me4dc9778e0" y="169.294655"/>
     <use style="fill:#0000ff;stroke:#0000ff;" x="233.035217" xlink:href="#me4dc9778e0" y="169.349773"/>
     <use style="fill:#0000ff;stroke:#0000ff;" x="232.938047" xlink:href="#me4dc9778e0" y="169.409668"/>
     <use style="fill:#0000ff;stroke:#0000ff;" x="232.836569" xlink:href="#me4dc9778e0" y="169.47497"/>
     <use style="fill:#0000ff;stroke:#0000ff;" x="232.730385" xlink:href="#me4dc9778e0" y="169.54643"/>
     <use style="fill:#0000ff;stroke:#0000ff;" x="232.619034" xlink:href="#me4dc9778e0" y="169.624953"/>
     <use style="fill:#0000ff;stroke:#0000ff;" x="232.501987" xlink:href="#me4dc9778e0" y="169.711648"/>
     <use style="fill:#0000ff;stroke:#0000ff;" x="232.378628" xlink:href="#me4dc9778e0" y="169.807881"/>
     <use style="fill:#0000ff;stroke:#0000ff;" x="232.248234" xlink:href="#me4dc9778e0" y="169.915366"/>
     <use style="fill:#0000ff;stroke:#0000ff;" x="232.109956" xlink:href="#me4dc9778e0" y="170.036291"/>
    </g>
   </g>
   <g id="line2d_16">
    <defs>
     <path d="M 0 1.5 
C 0.397805 1.5 0.77937 1.341951 1.06066 1.06066 
C 1.341951 0.77937 1.5 0.397805 1.5 0 
C 1.5 -0.397805 1.341951 -0.77937 1.06066 -1.06066 
C 0.77937 -1.341951 0.397805 -1.5 0 -1.5 
C -0.397805 -1.5 -0.77937 -1.341951 -1.06066 -1.06066 
C -1.341951 -0.77937 -1.5 -0.397805 -1.5 0 
C -1.5 0.397805 -1.341951 0.77937 -1.06066 1.06066 
C -0.77937 1.341951 -0.397805 1.5 0 1.5 
z
" id="m27425ee927" style="stroke:#ff0000;"/>
    </defs>
    <g clip-path="url(#p8924180fa0)">
     <use style="fill:#ff0000;stroke:#ff0000;" x="361.154059" xlink:href="#m27425ee927" y="151.999855"/>
     <use style="fill:#ff0000;stroke:#ff0000;" x="359.468155" xlink:href="#m27425ee927" y="144.095599"/>
     <use style="fill:#ff0000;stroke:#ff0000;" x="356.726111" xlink:href="#m27425ee927" y="134.59249"/>
     <use style="fill:#ff0000;stroke:#ff0000;" x="352.11491" xlink:href="#m27425ee927" y="122.706277"/>
     <use style="fill:#ff0000;stroke:#ff0000;" x="343.644971" xlink:href="#m27425ee927" y="106.866984"/>
     <use style="fill:#ff0000;stroke:#ff0000;" x="324.301584" xlink:href="#m27425ee927" y="83.083518"/>
     <use style="fill:#ff0000;stroke:#ff0000;" x="284.115234" xlink:href="#m27425ee927" y="182.467342"/>
     <use style="fill:#ff0000;stroke:#ff0000;" x="284.281916" xlink:href="#m27425ee927" y="181.385028"/>
     <use style="fill:#ff0000;stroke:#ff0000;" x="284.43309" xlink:href="#m27425ee927" y="180.22418"/>
     <use style="fill:#ff0000;stroke:#ff0000;" x="284.564279" xlink:href="#m27425ee927" y="178.973605"/>
     <use style="fill:#ff0000;stroke:#ff0000;" x="284.669586" xlink:href="#m27425ee927" y="177.619564"/>
     <use style="fill:#ff0000;stroke:#ff0000;" x="284.741099" xlink:href="#m27425ee927" y="176.144935"/>
     <use style="fill:#ff0000;stroke:#ff0000;" x="284.768" xlink:href="#m27425ee927" y="174.528"/>
     <use style="fill:#ff0000;stroke:#ff0000;" x="284.735127" xlink:href="#m27425ee927" y="172.740634"/>
     <use style="fill:#ff0000;stroke:#ff0000;" x="284.620607" xlink:href="#m27425ee927" y="170.745503"/>
     <use style="fill:#ff0000;stroke:#ff0000;" x="284.391718" xlink:href="#m27425ee927" y="168.491525"/>
     <use style="fill:#ff0000;stroke:#ff0000;" x="283.997232" xlink:href="#m27425ee927" y="165.906117"/>
     <use style="fill:#ff0000;stroke:#ff0000;" x="283.35201" xlink:href="#m27425ee927" y="162.881032"/>
     <use style="fill:#ff0000;stroke:#ff0000;" x="282.302586" xlink:href="#m27425ee927" y="159.244039"/>
     <use style="fill:#ff0000;stroke:#ff0000;" x="256.918974" xlink:href="#m27425ee927" y="182.327998"/>
     <use style="fill:#ff0000;stroke:#ff0000;" x="257.016321" xlink:href="#m27425ee927" y="182.063837"/>
     <use style="fill:#ff0000;stroke:#ff0000;" x="257.113789" xlink:href="#m27425ee927" y="181.788421"/>
     <use style="fill:#ff0000;stroke:#ff0000;" x="257.211226" xlink:href="#m27425ee927" y="181.500867"/>
     <use style="fill:#ff0000;stroke:#ff0000;" x="257.308449" xlink:href="#m27425ee927" y="181.200186"/>
     <use style="fill:#ff0000;stroke:#ff0000;" x="257.405239" xlink:href="#m27425ee927" y="180.885264"/>
     <use style="fill:#ff0000;stroke:#ff0000;" x="257.501324" xlink:href="#m27425ee927" y="180.554844"/>
     <use style="fill:#ff0000;stroke:#ff0000;" x="257.596377" xlink:href="#m27425ee927" y="180.207498"/>
     <use style="fill:#ff0000;stroke:#ff0000;" x="257.689995" xlink:href="#m27425ee927" y="179.841594"/>
     <use style="fill:#ff0000;stroke:#ff0000;" x="257.781681" xlink:href="#m27425ee927" y="179.455257"/>
     <use style="fill:#ff0000;stroke:#ff0000;" x="257.870821" xlink:href="#m27425ee927" y="179.04632"/>
     <use style="fill:#ff0000;stroke:#ff0000;" x="257.956647" xlink:href="#m27425ee927" y="178.612256"/>
     <use style="fill:#ff0000;stroke:#ff0000;" x="258.038195" xlink:href="#m27425ee927" y="178.150096"/>
     <use style="fill:#ff0000;stroke:#ff0000;" x="258.114238" xlink:href="#m27425ee927" y="177.656322"/>
     <use style="fill:#ff0000;stroke:#ff0000;" x="258.183207" xlink:href="#m27425ee927" y="177.126718"/>
     <use style="fill:#ff0000;stroke:#ff0000;" x="258.243058" xlink:href="#m27425ee927" y="176.556179"/>
     <use style="fill:#ff0000;stroke:#ff0000;" x="258.291101" xlink:href="#m27425ee927" y="175.938437"/>
     <use style="fill:#ff0000;stroke:#ff0000;" x="250.81322" xlink:href="#m27425ee927" y="190.571351"/>
     <use style="fill:#ff0000;stroke:#ff0000;" x="250.86524" xlink:href="#m27425ee927" y="190.523683"/>
     <use style="fill:#ff0000;stroke:#ff0000;" x="250.917592" xlink:href="#m27425ee927" y="190.475397"/>
     <use style="fill:#ff0000;stroke:#ff0000;" x="250.970278" xlink:href="#m27425ee927" y="190.426479"/>
     <use style="fill:#ff0000;stroke:#ff0000;" x="251.023305" xlink:href="#m27425ee927" y="190.376917"/>
     <use style="fill:#ff0000;stroke:#ff0000;" x="251.076675" xlink:href="#m27425ee927" y="190.326696"/>
     <use style="fill:#ff0000;stroke:#ff0000;" x="251.130394" xlink:href="#m27425ee927" y="190.275803"/>
     <use style="fill:#ff0000;stroke:#ff0000;" x="251.184466" xlink:href="#m27425ee927" y="190.224223"/>
     <use style="fill:#ff0000;stroke:#ff0000;" x="251.238895" xlink:href="#m27425ee927" y="190.171941"/>
     <use style="fill:#ff0000;stroke:#ff0000;" x="251.293687" xlink:href="#m27425ee927" y="190.118943"/>
     <use style="fill:#ff0000;stroke:#ff0000;" x="251.348846" xlink:href="#m27425ee927" y="190.065211"/>
     <use style="fill:#ff0000;stroke:#ff0000;" x="251.404377" xlink:href="#m27425ee927" y="190.01073"/>
     <use style="fill:#ff0000;stroke:#ff0000;" x="251.460286" xlink:href="#m27425ee927" y="189.955484"/>
     <use style="fill:#ff0000;stroke:#ff0000;" x="251.516576" xlink:href="#m27425ee927" y="189.899453"/>
     <use style="fill:#ff0000;stroke:#ff0000;" x="251.573253" xlink:href="#m27425ee927" y="189.842621"/>
     <use style="fill:#ff0000;stroke:#ff0000;" x="251.630323" xlink:href="#m27425ee927" y="189.784969"/>
     <use style="fill:#ff0000;stroke:#ff0000;" x="251.687791" xlink:href="#m27425ee927" y="189.726477"/>
     <use style="fill:#ff0000;stroke:#ff0000;" x="251.745662" xlink:href="#m27425ee927" y="189.667126"/>
     <use style="fill:#ff0000;stroke:#ff0000;" x="251.803941" xlink:href="#m27425ee927" y="189.606895"/>
     <use style="fill:#ff0000;stroke:#ff0000;" x="251.862636" xlink:href="#m27425ee927" y="189.545763"/>
     <use style="fill:#ff0000;stroke:#ff0000;" x="251.92175" xlink:href="#m27425ee927" y="189.483708"/>
     <use style="fill:#ff0000;stroke:#ff0000;" x="251.981291" xlink:href="#m27425ee927" y="189.420707"/>
     <use style="fill:#ff0000;stroke:#ff0000;" x="252.041264" xlink:href="#m27425ee927" y="189.356737"/>
     <use style="fill:#ff0000;stroke:#ff0000;" x="252.101675" xlink:href="#m27425ee927" y="189.291773"/>
     <use style="fill:#ff0000;stroke:#ff0000;" x="252.162531" xlink:href="#m27425ee927" y="189.225789"/>
     <use style="fill:#ff0000;stroke:#ff0000;" x="252.223837" xlink:href="#m27425ee927" y="189.15876"/>
     <use style="fill:#ff0000;stroke:#ff0000;" x="252.285601" xlink:href="#m27425ee927" y="189.090657"/>
     <use style="fill:#ff0000;stroke:#ff0000;" x="252.347828" xlink:href="#m27425ee927" y="189.021454"/>
     <use style="fill:#ff0000;stroke:#ff0000;" x="252.410526" xlink:href="#m27425ee927" y="188.95112"/>
     <use style="fill:#ff0000;stroke:#ff0000;" x="252.473701" xlink:href="#m27425ee927" y="188.879625"/>
     <use style="fill:#ff0000;stroke:#ff0000;" x="252.537361" xlink:href="#m27425ee927" y="188.806937"/>
     <use style="fill:#ff0000;stroke:#ff0000;" x="252.601511" xlink:href="#m27425ee927" y="188.733024"/>
     <use style="fill:#ff0000;stroke:#ff0000;" x="252.66616" xlink:href="#m27425ee927" y="188.65785"/>
     <use style="fill:#ff0000;stroke:#ff0000;" x="252.731315" xlink:href="#m27425ee927" y="188.58138"/>
     <use style="fill:#ff0000;stroke:#ff0000;" x="252.796983" xlink:href="#m27425ee927" y="188.503578"/>
     <use style="fill:#ff0000;stroke:#ff0000;" x="252.863172" xlink:href="#m27425ee927" y="188.424404"/>
     <use style="fill:#ff0000;stroke:#ff0000;" x="252.929889" xlink:href="#m27425ee927" y="188.343817"/>
     <use style="fill:#ff0000;stroke:#ff0000;" x="252.997142" xlink:href="#m27425ee927" y="188.261777"/>
     <use style="fill:#ff0000;stroke:#ff0000;" x="253.064939" xlink:href="#m27425ee927" y="188.178239"/>
     <use style="fill:#ff0000;stroke:#ff0000;" x="253.133289" xlink:href="#m27425ee927" y="188.093156"/>
     <use style="fill:#ff0000;stroke:#ff0000;" x="253.202198" xlink:href="#m27425ee927" y="188.006482"/>
     <use style="fill:#ff0000;stroke:#ff0000;" x="253.271676" xlink:href="#m27425ee927" y="187.918165"/>
     <use style="fill:#ff0000;stroke:#ff0000;" x="253.341731" xlink:href="#m27425ee927" y="187.828155"/>
     <use style="fill:#ff0000;stroke:#ff0000;" x="253.41237" xlink:href="#m27425ee927" y="187.736395"/>
     <use style="fill:#ff0000;stroke:#ff0000;" x="253.483604" xlink:href="#m27425ee927" y="187.642829"/>
     <use style="fill:#ff0000;stroke:#ff0000;" x="253.55544" xlink:href="#m27425ee927" y="187.547395"/>
     <use style="fill:#ff0000;stroke:#ff0000;" x="253.627887" xlink:href="#m27425ee927" y="187.450032"/>
     <use style="fill:#ff0000;stroke:#ff0000;" x="253.700954" xlink:href="#m27425ee927" y="187.350673"/>
     <use style="fill:#ff0000;stroke:#ff0000;" x="253.774649" xlink:href="#m27425ee927" y="187.249247"/>
     <use style="fill:#ff0000;stroke:#ff0000;" x="253.848981" xlink:href="#m27425ee927" y="187.145683"/>
     <use style="fill:#ff0000;stroke:#ff0000;" x="253.92396" xlink:href="#m27425ee927" y="187.039903"/>
     <use style="fill:#ff0000;stroke:#ff0000;" x="253.999593" xlink:href="#m27425ee927" y="186.931826"/>
     <use style="fill:#ff0000;stroke:#ff0000;" x="254.07589" xlink:href="#m27425ee927" y="186.821367"/>
     <use style="fill:#ff0000;stroke:#ff0000;" x="254.152859" xlink:href="#m27425ee927" y="186.708435"/>
     <use style="fill:#ff0000;stroke:#ff0000;" x="254.23051" xlink:href="#m27425ee927" y="186.592936"/>
     <use style="fill:#ff0000;stroke:#ff0000;" x="254.308849" xlink:href="#m27425ee927" y="186.474768"/>
     <use style="fill:#ff0000;stroke:#ff0000;" x="254.387885" xlink:href="#m27425ee927" y="186.353827"/>
     <use style="fill:#ff0000;stroke:#ff0000;" x="254.467627" xlink:href="#m27425ee927" y="186.229999"/>
     <use style="fill:#ff0000;stroke:#ff0000;" x="254.548081" xlink:href="#m27425ee927" y="186.103165"/>
     <use style="fill:#ff0000;stroke:#ff0000;" x="254.629256" xlink:href="#m27425ee927" y="185.973199"/>
     <use style="fill:#ff0000;stroke:#ff0000;" x="254.711157" xlink:href="#m27425ee927" y="185.839965"/>
     <use style="fill:#ff0000;stroke:#ff0000;" x="254.793791" xlink:href="#m27425ee927" y="185.703322"/>
     <use style="fill:#ff0000;stroke:#ff0000;" x="254.877162" xlink:href="#m27425ee927" y="185.563118"/>
     <use style="fill:#ff0000;stroke:#ff0000;" x="254.961277" xlink:href="#m27425ee927" y="185.419188"/>
     <use style="fill:#ff0000;stroke:#ff0000;" x="255.046137" xlink:href="#m27425ee927" y="185.271362"/>
     <use style="fill:#ff0000;stroke:#ff0000;" x="255.131745" xlink:href="#m27425ee927" y="185.119453"/>
     <use style="fill:#ff0000;stroke:#ff0000;" x="255.218103" xlink:href="#m27425ee927" y="184.963262"/>
     <use style="fill:#ff0000;stroke:#ff0000;" x="255.305209" xlink:href="#m27425ee927" y="184.802578"/>
     <use style="fill:#ff0000;stroke:#ff0000;" x="255.39306" xlink:href="#m27425ee927" y="184.637173"/>
     <use style="fill:#ff0000;stroke:#ff0000;" x="255.481653" xlink:href="#m27425ee927" y="184.466799"/>
     <use style="fill:#ff0000;stroke:#ff0000;" x="255.570977" xlink:href="#m27425ee927" y="184.291193"/>
     <use style="fill:#ff0000;stroke:#ff0000;" x="255.661024" xlink:href="#m27425ee927" y="184.110069"/>
     <use style="fill:#ff0000;stroke:#ff0000;" x="255.751778" xlink:href="#m27425ee927" y="183.923117"/>
     <use style="fill:#ff0000;stroke:#ff0000;" x="255.84322" xlink:href="#m27425ee927" y="183.730002"/>
     <use style="fill:#ff0000;stroke:#ff0000;" x="255.935326" xlink:href="#m27425ee927" y="183.53036"/>
     <use style="fill:#ff0000;stroke:#ff0000;" x="256.028065" xlink:href="#m27425ee927" y="183.323794"/>
     <use style="fill:#ff0000;stroke:#ff0000;" x="256.121399" xlink:href="#m27425ee927" y="183.109872"/>
     <use style="fill:#ff0000;stroke:#ff0000;" x="256.215283" xlink:href="#m27425ee927" y="182.88812"/>
     <use style="fill:#ff0000;stroke:#ff0000;" x="256.309659" xlink:href="#m27425ee927" y="182.658019"/>
     <use style="fill:#ff0000;stroke:#ff0000;" x="256.40446" xlink:href="#m27425ee927" y="182.418997"/>
     <use style="fill:#ff0000;stroke:#ff0000;" x="256.499601" xlink:href="#m27425ee927" y="182.170423"/>
     <use style="fill:#ff0000;stroke:#ff0000;" x="256.594982" xlink:href="#m27425ee927" y="181.911597"/>
     <use style="fill:#ff0000;stroke:#ff0000;" x="256.69048" xlink:href="#m27425ee927" y="181.641746"/>
     <use style="fill:#ff0000;stroke:#ff0000;" x="249.554518" xlink:href="#m27425ee927" y="191.063576"/>
     <use style="fill:#ff0000;stroke:#ff0000;" x="249.599741" xlink:href="#m27425ee927" y="191.026842"/>
     <use style="fill:#ff0000;stroke:#ff0000;" x="249.645219" xlink:href="#m27425ee927" y="190.989691"/>
     <use style="fill:#ff0000;stroke:#ff0000;" x="249.690955" xlink:href="#m27425ee927" y="190.952118"/>
     <use style="fill:#ff0000;stroke:#ff0000;" x="249.736953" xlink:href="#m27425ee927" y="190.914114"/>
     <use style="fill:#ff0000;stroke:#ff0000;" x="249.783216" xlink:href="#m27425ee927" y="190.875673"/>
     <use style="fill:#ff0000;stroke:#ff0000;" x="249.829745" xlink:href="#m27425ee927" y="190.836785"/>
     <use style="fill:#ff0000;stroke:#ff0000;" x="249.876546" xlink:href="#m27425ee927" y="190.797443"/>
     <use style="fill:#ff0000;stroke:#ff0000;" x="249.92362" xlink:href="#m27425ee927" y="190.757639"/>
     <use style="fill:#ff0000;stroke:#ff0000;" x="249.970971" xlink:href="#m27425ee927" y="190.717363"/>
     <use style="fill:#ff0000;stroke:#ff0000;" x="250.018602" xlink:href="#m27425ee927" y="190.676608"/>
     <use style="fill:#ff0000;stroke:#ff0000;" x="250.066517" xlink:href="#m27425ee927" y="190.635364"/>
    </g>
   </g>
   <g id="patch_3">
    <path d="M 369.216 174.528 
C 369.216 157.055246 365.774248 139.752393 359.087715 123.609673 
C 352.401182 107.466954 342.599903 92.798303 330.2448 80.4432 
C 317.889697 68.088097 303.221046 58.286818 287.078327 51.600285 
C 270.935607 44.913752 253.632754 41.472 236.16 41.472 
C 218.687246 41.472 201.384393 44.913752 185.241673 51.600285 
C 169.098954 58.286818 154.430303 68.088097 142.0752 80.4432 
C 129.720097 92.798303 119.918818 107.466954 113.232285 123.609673 
C 106.545752 139.752393 103.104 157.055246 103.104 174.528 
C 103.104 192.000754 106.545752 209.303607 113.232285 225.446327 
C 119.918818 241.589046 129.720097 256.257697 142.0752 268.6128 
C 154.430303 280.967903 169.098954 290.769182 185.241673 297.455715 
C 201.384393 304.142248 218.687246 307.584 236.16 307.584 
C 253.632754 307.584 270.935607 304.142248 287.078327 297.455715 
C 303.221046 290.769182 317.889697 280.967903 330.2448 268.6128 
C 342.599903 256.257697 352.401182 241.589046 359.087715 225.446327 
C 365.774248 209.303607 369.216 192.000754 369.216 174.528 
" style="fill:none;stroke:#000000;stroke-linecap:square;stroke-linejoin:miter;stroke-width:0.8;"/>
   </g>
   <g id="legend_1">
    <g id="patch_4">
     <path d="M 289.148813 78.82825 
L 362.216 78.82825 
Q 364.216 78.82825 364.216 76.82825 
L 364.216 48.472 
Q 364.216 46.472 362.216 46.472 
L 289.148813 46.472 
Q 287.148813 46.472 287.148813 48.472 
L 287.148813 76.82825 
Q 287.148813 78.82825 289.148813 78.82825 
z
" style="fill:#ffffff;opacity:0.8;stroke:#cccccc;stroke-linejoin:miter;"/>
    </g>
    <g id="line2d_17"/>
    <g id="line2d_18">
     <g>
      <use style="fill:#0000ff;stroke:#0000ff;" x="301.148813" xlink:href="#me4dc9778e0" y="54.570437"/>
     </g>
    </g>
    <g id="text_15">
     <!-- electron -->
     <defs>
      <path d="M 56.203125 29.59375 
L 56.203125 25.203125 
L 14.890625 25.203125 
Q 15.484375 15.921875 20.484375 11.0625 
Q 25.484375 6.203125 34.421875 6.203125 
Q 39.59375 6.203125 44.453125 7.46875 
Q 49.3125 8.734375 54.109375 11.28125 
L 54.109375 2.78125 
Q 49.265625 0.734375 44.1875 -0.34375 
Q 39.109375 -1.421875 33.890625 -1.421875 
Q 20.796875 -1.421875 13.15625 6.1875 
Q 5.515625 13.8125 5.515625 26.8125 
Q 5.515625 40.234375 12.765625 48.109375 
Q 20.015625 56 32.328125 56 
Q 43.359375 56 49.78125 48.890625 
Q 56.203125 41.796875 56.203125 29.59375 
z
M 47.21875 32.234375 
Q 47.125 39.59375 43.09375 43.984375 
Q 39.0625 48.390625 32.421875 48.390625 
Q 24.90625 48.390625 20.390625 44.140625 
Q 15.875 39.890625 15.1875 32.171875 
z
" id="DejaVuSans-101"/>
      <path d="M 9.421875 75.984375 
L 18.40625 75.984375 
L 18.40625 0 
L 9.421875 0 
z
" id="DejaVuSans-108"/>
      <path d="M 48.78125 52.59375 
L 48.78125 44.1875 
Q 44.96875 46.296875 41.140625 47.34375 
Q 37.3125 48.390625 33.40625 48.390625 
Q 24.65625 48.390625 19.8125 42.84375 
Q 14.984375 37.3125 14.984375 27.296875 
Q 14.984375 17.28125 19.8125 11.734375 
Q 24.65625 6.203125 33.40625 6.203125 
Q 37.3125 6.203125 41.140625 7.25 
Q 44.96875 8.296875 48.78125 10.40625 
L 48.78125 2.09375 
Q 45.015625 0.34375 40.984375 -0.53125 
Q 36.96875 -1.421875 32.421875 -1.421875 
Q 20.0625 -1.421875 12.78125 6.34375 
Q 5.515625 14.109375 5.515625 27.296875 
Q 5.515625 40.671875 12.859375 48.328125 
Q 20.21875 56 33.015625 56 
Q 37.15625 56 41.109375 55.140625 
Q 45.0625 54.296875 48.78125 52.59375 
z
" id="DejaVuSans-99"/>
      <path d="M 18.3125 70.21875 
L 18.3125 54.6875 
L 36.8125 54.6875 
L 36.8125 47.703125 
L 18.3125 47.703125 
L 18.3125 18.015625 
Q 18.3125 11.328125 20.140625 9.421875 
Q 21.96875 7.515625 27.59375 7.515625 
L 36.8125 7.515625 
L 36.8125 0 
L 27.59375 0 
Q 17.1875 0 13.234375 3.875 
Q 9.28125 7.765625 9.28125 18.015625 
L 9.28125 47.703125 
L 2.6875 47.703125 
L 2.6875 54.6875 
L 9.28125 54.6875 
L 9.28125 70.21875 
z
" id="DejaVuSans-116"/>
      <path d="M 41.109375 46.296875 
Q 39.59375 47.171875 37.8125 47.578125 
Q 36.03125 48 33.890625 48 
Q 26.265625 48 22.1875 43.046875 
Q 18.109375 38.09375 18.109375 28.8125 
L 18.109375 0 
L 9.078125 0 
L 9.078125 54.6875 
L 18.109375 54.6875 
L 18.109375 46.1875 
Q 20.953125 51.171875 25.484375 53.578125 
Q 30.03125 56 36.53125 56 
Q 37.453125 56 38.578125 55.875 
Q 39.703125 55.765625 41.0625 55.515625 
z
" id="DejaVuSans-114"/>
      <path d="M 30.609375 48.390625 
Q 23.390625 48.390625 19.1875 42.75 
Q 14.984375 37.109375 14.984375 27.296875 
Q 14.984375 17.484375 19.15625 11.84375 
Q 23.34375 6.203125 30.609375 6.203125 
Q 37.796875 6.203125 41.984375 11.859375 
Q 46.1875 17.53125 46.1875 27.296875 
Q 46.1875 37.015625 41.984375 42.703125 
Q 37.796875 48.390625 30.609375 48.390625 
z
M 30.609375 56 
Q 42.328125 56 49.015625 48.375 
Q 55.71875 40.765625 55.71875 27.296875 
Q 55.71875 13.875 49.015625 6.21875 
Q 42.328125 -1.421875 30.609375 -1.421875 
Q 18.84375 -1.421875 12.171875 6.21875 
Q 5.515625 13.875 5.515625 27.296875 
Q 5.515625 40.765625 12.171875 48.375 
Q 18.84375 56 30.609375 56 
z
" id="DejaVuSans-111"/>
      <path d="M 54.890625 33.015625 
L 54.890625 0 
L 45.90625 0 
L 45.90625 32.71875 
Q 45.90625 40.484375 42.875 44.328125 
Q 39.84375 48.1875 33.796875 48.1875 
Q 26.515625 48.1875 22.3125 43.546875 
Q 18.109375 38.921875 18.109375 30.90625 
L 18.109375 0 
L 9.078125 0 
L 9.078125 54.6875 
L 18.109375 54.6875 
L 18.109375 46.1875 
Q 21.34375 51.125 25.703125 53.5625 
Q 30.078125 56 35.796875 56 
Q 45.21875 56 50.046875 50.171875 
Q 54.890625 44.34375 54.890625 33.015625 
z
" id="DejaVuSans-110"/>
     </defs>
     <g transform="translate(319.148813 58.070437)scale(0.1 -0.1)">
      <use xlink:href="#DejaVuSans-101"/>
      <use x="61.523438" xlink:href="#DejaVuSans-108"/>
      <use x="89.306641" xlink:href="#DejaVuSans-101"/>
      <use x="150.830078" xlink:href="#DejaVuSans-99"/>
      <use x="205.810547" xlink:href="#DejaVuSans-116"/>
      <use x="245.019531" xlink:href="#DejaVuSans-114"/>
      <use x="286.101562" xlink:href="#DejaVuSans-111"/>
      <use x="347.283203" xlink:href="#DejaVuSans-110"/>
     </g>
    </g>
    <g id="line2d_19"/>
    <g id="line2d_20">
     <g>
      <use style="fill:#ff0000;stroke:#ff0000;" x="301.148813" xlink:href="#m27425ee927" y="69.248562"/>
     </g>
    </g>
    <g id="text_16">
     <!-- proton -->
     <defs>
      <path d="M 18.109375 8.203125 
L 18.109375 -20.796875 
L 9.078125 -20.796875 
L 9.078125 54.6875 
L 18.109375 54.6875 
L 18.109375 46.390625 
Q 20.953125 51.265625 25.265625 53.625 
Q 29.59375 56 35.59375 56 
Q 45.5625 56 51.78125 48.09375 
Q 58.015625 40.1875 58.015625 27.296875 
Q 58.015625 14.40625 51.78125 6.484375 
Q 45.5625 -1.421875 35.59375 -1.421875 
Q 29.59375 -1.421875 25.265625 0.953125 
Q 20.953125 3.328125 18.109375 8.203125 
z
M 48.6875 27.296875 
Q 48.6875 37.203125 44.609375 42.84375 
Q 40.53125 48.484375 33.40625 48.484375 
Q 26.265625 48.484375 22.1875 42.84375 
Q 18.109375 37.203125 18.109375 27.296875 
Q 18.109375 17.390625 22.1875 11.75 
Q 26.265625 6.109375 33.40625 6.109375 
Q 40.53125 6.109375 44.609375 11.75 
Q 48.6875 17.390625 48.6875 27.296875 
z
" id="DejaVuSans-112"/>
     </defs>
     <g transform="translate(319.148813 72.748562)scale(0.1 -0.1)">
      <use xlink:href="#DejaVuSans-112"/>
      <use x="63.476562" xlink:href="#DejaVuSans-114"/>
      <use x="104.558594" xlink:href="#DejaVuSans-111"/>
      <use x="165.740234" xlink:href="#DejaVuSans-116"/>
      <use x="204.949219" xlink:href="#DejaVuSans-111"/>
      <use x="266.130859" xlink:href="#DejaVuSans-110"/>
     </g>
    </g>
   </g>
  </g>
 </g>
 <defs>
  <clipPath id="p8924180fa0">
   <path d="M 369.216 174.528 
C 369.216 157.055246 365.774248 139.752393 359.087715 123.609673 
C 352.401182 107.466954 342.599903 92.798303 330.2448 80.4432 
C 317.889697 68.088097 303.221046 58.286818 287.078327 51.600285 
C 270.935607 44.913752 253.632754 41.472 236.16 41.472 
C 218.687246 41.472 201.384393 44.913752 185.241673 51.600285 
C 169.098954 58.286818 154.430303 68.088097 142.0752 80.4432 
C 129.720097 92.798303 119.918818 107.466954 113.232285 123.609673 
C 106.545752 139.752393 103.104 157.055246 103.104 174.528 
C 103.104 192.000754 106.545752 209.303607 113.232285 225.446327 
C 119.918818 241.589046 129.720097 256.257697 142.0752 268.6128 
C 154.430303 280.967903 169.098954 290.769182 185.241673 297.455715 
C 201.384393 304.142248 218.687246 307.584 236.16 307.584 
C 253.632754 307.584 270.935607 304.142248 287.078327 297.455715 
C 303.221046 290.769182 317.889697 280.967903 330.2448 268.6128 
C 342.599903 256.257697 352.401182 241.589046 359.087715 225.446327 
C 365.774248 209.303607 369.216 192.000754 369.216 174.528 
M 236.16 174.528 
C 236.16 174.528 236.16 174.528 236.16 174.528 
C 236.16 174.528 236.16 174.528 236.16 174.528 
C 236.16 174.528 236.16 174.528 236.16 174.528 
C 236.16 174.528 236.16 174.528 236.16 174.528 
C 236.16 174.528 236.16 174.528 236.16 174.528 
C 236.16 174.528 236.16 174.528 236.16 174.528 
C 236.16 174.528 236.16 174.528 236.16 174.528 
C 236.16 174.528 236.16 174.528 236.16 174.528 
C 236.16 174.528 236.16 174.528 236.16 174.528 
C 236.16 174.528 236.16 174.528 236.16 174.528 
C 236.16 174.528 236.16 174.528 236.16 174.528 
C 236.16 174.528 236.16 174.528 236.16 174.528 
C 236.16 174.528 236.16 174.528 236.16 174.528 
C 236.16 174.528 236.16 174.528 236.16 174.528 
C 236.16 174.528 236.16 174.528 236.16 174.528 
C 236.16 174.528 236.16 174.528 236.16 174.528 
M 369.216 174.528 
z
"/>
  </clipPath>
 </defs>
</svg>
